<?xml version="1.0" encoding="utf-8"?>
<!-- Generator: Adobe Illustrator 25.2.1, SVG Export Plug-In . SVG Version: 6.00 Build 0)  -->
<svg version="1.1" xmlns="http://www.w3.org/2000/svg" xmlns:xlink="http://www.w3.org/1999/xlink" x="0px" y="0px"
	 viewBox="0 0 7238 3240" enable-background="new 0 0 7238 3240" xml:space="preserve">
<g id="logo">
	<g>
		<polygon fill="#FFFFFF" points="997.29,1930.08 873.18,1930.08 873.18,2342.33 997.29,2342.33 997.29,2200.96 1446.23,2200.96 
			1446.23,2071.45 997.29,2071.45 		"/>
		<polygon fill="#FFFFFF" points="873.18,1575.02 1096.57,1575.02 1096.57,1717.48 873.18,1717.48 873.18,1846.98 1446.23,1846.98 
			1446.23,1717.48 1220.68,1717.48 1220.68,1575.02 1446.23,1575.02 1446.23,1445.52 873.18,1445.52 		"/>
		<polygon fill="#FFFFFF" points="1331.84,1188.67 1220.68,1188.67 1220.68,987.94 1096.57,987.94 1096.57,1188.67 986.49,1188.67 
			986.49,956.64 873.18,956.64 873.18,1318.17 1446.23,1318.17 1446.23,946.93 1331.84,946.93 		"/>
		<polygon fill="#FFFFFF" points="5960.1,2067.74 5960.1,1746.31 6338.69,1746.31 6338.69,1493.92 5960.1,1493.92 5960.1,1174.66 
			6357.02,1174.66 6357.02,924.42 5721.73,924.42 5721.73,2320.13 6375.36,2320.13 6375.36,2067.74 		"/>
		<path fill="#FFFFFF" d="M5071.02,1781.67c15.74-9.93,70.3-68.29,83.94-203.41c3.27-32.42,3.7-64.88,2.99-97.39
			c-1.83-83.61-29.32-144.44-35.2-157.77c-10.8-24.47-24.47-47.07-43.98-65.91c-13.9-13.43-28.98-13-38.81,3.28
			c-19.17,31.71-38.83,126.6-38.83,223.92c0,13.96,0,185.23,36.13,278.34C5045.75,1784.58,5060.03,1788.6,5071.02,1781.67z"/>
		<path fill="#FFFFFF" d="M3511.87,2240.75c-2.73,1.25-108.7,65.65-117.28,70.67c-2.24,1.31-5.07,2.52-4.92,5.46
			c0.06,1.11,0.61,2.55,3.9,2.55c0.91,0,74.02,0.52,111.84,0.44c3.03-0.01,10.04-1,11.38-8.37c3.25-17.87,2.7-50.24-0.63-68.51
			C3515.8,2241.02,3513.69,2239.92,3511.87,2240.75z"/>
		<path fill="#FFFFFF" d="M1969.51,1706.81c9.06-72.82,26.15-144.34,48.46-203.53c0.42-1.12,0.85-2.21,1.28-3.32
			c-86.18-21.66-164.3-59.5-164.3-201.26c0-85.21,57.17-143.45,131.59-143.45c92.95,0,122.68,95.16,130.36,159.7
			c59.04-86.9,124.23-157.29,178.15-239.11c-46.59-79.68-140.42-178.37-322.53-178.37c-270.73,0-361.33,226.51-361.33,402.32
			c0,162.87,48.54,232.98,106.78,291.22C1790.86,1663.89,1868.85,1679.53,1969.51,1706.81z"/>
		<path fill="#FFFFFF" d="M1996.95,1694.63c-9.68,48.52-13.39,105.06-9.86,157.53c9.9,147.17,58.3,233.08,81.59,266.68
			c16.43,23.71,35.85,44.88,59.87,61.02c34.13,22.93,74.84,12.89,99.88-37.74c58.69-118.65,25.92-306.3-12.79-383.48
			c-29.23-58.29-100.22-173.61-162.42-161.96C2015.22,1603.8,1998.24,1688.19,1996.95,1694.63z"/>
		<path fill="#FFFFFF" d="M5555.56,1050.68c-26.96-37.75-60.4-67.95-100.31-91.68c-39.91-23.73-87.37-34.52-141.3-34.52h-410.07
			h-12.76c-0.59,0-1.06,0.48-1.06,1.06v70.21c0,0.32,0.15,0.63,0.4,0.83l7.08,5.64c4.44,3.81,11.57,8.54,22.99,17.44
			c39.62,30.87,76.03,65.11,106.53,104.94c37.35,48.77,72.8,101.85,94.74,159.77c1.18,3.11,3.73,10.23,5.84,12.57
			c0.65,0.72,1.86,0.26,1.86-0.71v-120.46c0-0.59,0.48-1.06,1.06-1.06h121.9c18.92,0,47.7,5.54,74.46,22.93
			c13.16,8.42,24.55,18.96,34.09,31.65c10.15,13.33,18.77,29.68,24.77,49.64c5.29,16.65,8.28,33.84,8.61,51.53
			c0.28,5.1,0.44,10.34,0.44,15.76v23.73c0,4.87-0.13,9.6-0.37,14.21c-0.26,12.63-1.96,24.97-4.78,37.13
			c-2.73,12.64-6.45,24.04-10.95,34.3c-5.75,13.39-13.17,25.18-21.77,35.4c-0.21,0.25-0.41,0.5-0.62,0.75
			c-0.41,0.48-0.82,0.95-1.24,1.42c-0.98,1.13-1.98,2.24-2.98,3.32c-0.03,0.03-0.06,0.07-0.1,0.1
			c-32.04,34.43-74.49,44.87-99.58,44.87h-88.21c0,0-0.74,12.39-1.14,18.45c-4.53,68.86-19.83,135.14-46.37,198.93
			c-19.78,47.55-45.02,91.94-75.59,133.2c-13.4,18.09-52.41,66.21-135.71,133.84l-14.94,10.53c-0.28,0.2-0.45,0.52-0.45,0.87v281.86
			c0,0.59,0.48,1.06,1.06,1.06h12.96h212.35h10.93c0.59,0,1.06-0.48,1.06-1.06v-7.66V1794.9c0-0.59,0.48-1.06,1.06-1.06h157.49
			c25.76,0,44.76,7.6,57.77,23.54c1.05,1.25,2.06,2.55,3.04,3.9c0.62,0.88,1.23,1.77,1.82,2.69c8.09,12.14,13.63,26.83,16.67,44.03
			c0.05,0.44,0.11,0.89,0.16,1.33c1.24,7.36,2.01,15.18,2.33,23.45c0.05,0.64,0.08,1.29,0.13,1.93c0.07,2.27,0.13,4.56,0.13,6.91
			v417.43c0,0.59,0.48,1.06,1.06,1.06h13.5c0.24,0.02,0.48,0.05,0.72,0.07h205.39c0.75-0.02,1.5-0.04,2.24-0.07h16.55
			c0.59,0,1.06-0.48,1.06-1.06v-1.4c0-1.15-1.55-1.45-2.02-0.41c-0.01,0.02-0.02,0.04-0.03,0.06c-0.01,0-0.03,0.01-0.04,0.01
			c0.91-2.05,1.54-4.06,1.99-6.05c0.02-0.08,0.03-0.17,0.03-0.25v-472.98c0-46.38-10.79-85.21-31.28-115.41
			c-20.32-29.95-48.07-48.23-83.23-53.79c-0.52-0.08-0.9-0.52-0.9-1.04v-34.04c0-0.4,0.23-0.77,0.58-0.94
			c49.31-24.79,84.71-60.29,107.28-106.49c22.65-46.38,34.52-96,34.52-148.85v-47.46c0-50.69-6.47-100.31-20.49-148.85
			C5603.02,1131.58,5582.52,1088.43,5555.56,1050.68z"/>
		<path fill="#FFFFFF" d="M4045.95,827.01c-7.92-1-15.85-1.97-23.79-2.84c-37.05-4.05-74.13-7.91-111.16-12.15
			c-13.88-1.59-27.65-4.18-41.51-5.98l-0.13-0.02c-8.84-1.13-15.95,7.22-13.37,15.76c0.43,1.43,0.93,2.84,1.43,4.24
			c7.89,21.9,16.03,43.71,23.82,65.65c12.99,36.58,19.96,74.53,25.86,112.78c3.67,23.81,2.93,47.87,5.19,71.69
			c4.25,44.78,0.28,89.34-2.83,133.75c-3.3,47.11-10.46,93.95-16.4,140.86c-4.68,36.99-10.12,73.89-15.1,110.84
			c-1.96,14.52-3.16,29.15-5.47,43.61c-2.53,15.89-2.96,15.64-18.18,19.18c-19.45,4.52-38.97,8.86-58.19,14.23
			c-25.64,7.17-51.03,15.27-76.53,22.92c-4.92,1.47-9.84,4.61-16.31-0.25c0.69-4.53,1.03-9.72,2.29-14.68
			c6.24-24.51,12.15-49.13,19.24-73.4c13.44-46.02,27.48-91.88,41.51-137.73c16.37-53.5,32.92-106.91,43.55-161.99
			c6.46-33.44,10.98-67.11,12.79-101.02c2.03-37.98-0.1-75.8-7.01-113.44c-12.93-70.38-44.4-129.35-102.74-172.34
			c-8.46-6.24-14.06-13.86-17.73-23.45c-6.9-18.04-23.19-58-24.21-60.01c9.89,42.32,21.23,83.96,33.3,125.38
			c4.46,15.32,10.02,30.41,16.29,45.09c3.59,8.41,15.54,29.32,24.46,25.97c11.02-4.14,2.39-31.78-0.73-45.23
			c-0.01-0.03-0.02-0.05-0.02-0.08c-0.84-2.73,2.85-4.4,4.26-1.91c1.23,2.19,2.4,4.35,3.43,6.57c9.84,21.24,17.11,43.19,20.69,66.51
			c7.18,46.76-1.9,89.74-26.05,130.32c-17.11,28.74-38.54,54.27-57.6,81.54c-8,11.45-16.1,22.87-24.68,33.88
			c-15.14,19.42-30.89,38.36-46,57.8c-14.31,18.41-29.16,36.52-41.96,55.96c-25.25,38.35-50.09,76.87-71.78,117.58
			c-24.31,45.62-43.12,109.11-48.62,127.62c-13.43,45.17-23.58,91.29-29.53,138.23c-3.76,29.63-8.73,59.11-12.89,88.69
			c-1.85,13.14-3.13,26.37-4.48,39.57c-6.25,60.91-7.96,121.98-5.75,183.14c1.13,31.23,17.01,170.61,56.27,217.1
			c17.66,20.91,39.64,27.81,64.2,19.51c9.62-3.26,104.48-46.45,133.16-57.34c25.52-9.69,25.46-9.74,26.62-37.4
			c2.19-51.98-3.24-103.69-5.64-155.5c-0.03-0.66-0.21-1.32-0.27-1.98c-3.12-34.43-6.27-68.85-9.3-103.29
			c-0.47-5.3-0.66-10.72,3.9-15.23c8.19-3.24,16.7-1.26,25.23,0.01c42.13,6.29,84.32,11.88,127.08,10.95
			c6.65-0.14,13.32-0.11,19.95,0.35c10.25,0.71,12.85,3.78,12.48,13.77c-0.37,9.77-0.75,19.53-1.13,29.3h0
			c-0.24,6.35-3.21,78.52-8.99,115.85c-3.02,19.05-5.37,38.27-9.64,57.04c-2.93,12.87-8.18,25.3-13.26,37.56
			c-4.33,10.42-12.03,17.36-24.09,18.3c-3.95,0.31-7.84,1.49-11.74,2.33c-6.02,1.3-9.02,5.2-9.44,11.22
			c-0.19,2.66-0.41,177.71-0.41,177.71h239.69c0,0,0.19-115.56,0.06-164.18c-0.03-12.21-0.33-12.21-8.6-21.52
			c5.65-10.11,10.98-20.1,16.21-29.71c61.38-112.84,70.9-1111.95,33.96-1265.13C4057.84,832.31,4053.44,827.96,4045.95,827.01z"/>
		<path fill="#FFFFFF" d="M4785.76,952.52c-43.47-27.18-91.67-42.82-140.52-56.2c-87.01-23.84-176.4-34.44-265.8-43.9
			c-62.22-6.58-124.73-10.49-187.12-15.48l-16.31-1.33l1.76,16.19c2.45,22.48,6.01,44.9,7.15,67.46
			c35.31,703.01,6.13,1160.14-51.56,1221.18c7.25,11.19,7.39,11.19,7.42,24.34c0.07,42.65,0.04,155.3,0.04,155.3h653.17
			c0,0,0.26-210.91-0.35-215.5c-0.9-6.6-7.85-10.49-13.97-7.86c-28.93,12.4-57.64,22.28-87.04,29.53
			c-33.56,8.28-67.53,15.56-101.72,20.48c-33.55,4.83-150.74,13.87-204.39,6.62c14.52-60.63,25.71-273.82,27.41-314.41
			c0-0.04,0-0.09,0.01-0.13c0.37-7.65,6.22-13.94,13.77-15.23c9.18-1.56,294.01-5.27,376.03-6.31c12.14-0.15,21.9-10.04,21.9-22.18
			v-281.64c0-12.29-9.98-22.23-22.27-22.18c-70.96,0.29-290.8,1.22-354.19,1.67c-5.33,0.04-10.68,0.13-15.97-0.38
			c-7.52-0.72-10.45-3.71-10.97-11.62c-0.48-7.3,2.85-401.11,3.52-407.71c0.45-4.42,3.62-7.36,7.94-7.71
			c7.95-0.64,15.96-0.83,23.94-0.87c79.26-0.36,158.46-1.27,237.56-7.8c25.96-2.14,131.82-13.68,139.42-43.96
			C4840.47,989.57,4797.66,959.96,4785.76,952.52z"/>
		<path fill="#FFFFFF" d="M3241.74,1325.23c-96.75-40.36-144.63-127.24-159.11-149.45c-84.3-129.34-278.9-112.39-334.14-89.76
			c-49.46,20.27-57.47,66.73-61.49,76.51c-3.98,9.67-4.63,16.35-16.08,22.51c-11.45,6.17-34.81,2.11-34.81,2.11
			c-8.52-1.35-17.18-2.12-25.55-4.14c-30.36-7.31-60.57-15.22-89.21-28.01c-43.02-19.21-81.58-44.58-111.68-81.53
			c-1.17-1.43-2.35-2.85-3.52-4.28c-0.02-0.02-0.02-0.05-0.04-0.07c-0.53-0.64-1.29-1.56-2.23-2.69
			c-4.4-5.35-8.83-10.68-13.31-15.96c-0.25-0.29-0.5-0.56-0.76-0.81c-4.1-4.85-8.39-9.9-12.21-14.34l-40.85,89.01
			c2.58,10.01,5.53,20.51,8.56,29.8c1.43,5.25,3.35,10.39,5.61,15.44c1.29,3.07,2.55,5.73,3.78,7.82
			c19.12,36.96,47.26,65.86,80.85,89.62c47.07,33.31,98.61,57.84,152.63,77.8c53.81,19.88,109.01,34.96,164.04,50.74
			c51.24,14.69,101.89,31.18,151.02,51.94c14.06,5.94,27.91,12.81,40.85,20.87c38.24,23.84,56.65,58.68,54.81,103.92
			c-0.53,12.94-4.22,24.81-11.69,35.54c-12.47,17.93-28.37,31.61-48.48,40.31c-42.65,18.45-87.05,23.89-132.92,17.49
			c-40.87-5.7-81.71-11.64-122.52-17.8c-14.47-2.19-28.78-5.45-43.2-8c-6.53-1.15-10.83-4.44-13.08-10.75
			c-3.8-10.66-7.6-21.33-11.72-31.86c-34.25-87.47-165.56-299.98-317.83-378.28c-9.98-5.13-36.64-15.32-44.17-7.76
			c-28.86,28.55-122.24,146.37-142.51,176.2c59.83,28.48,112.95,92.8,134.54,125.24c151.76,228.04,134.9,593.08,130.81,646.89
			c-2.64,34.72-15.84,185.06-100.58,170.36c-21.15-3.67-61.48-20.82-108.97-60.11c-53.25-44.06-93.32-99.09-126.12-159.57
			c-0.19-0.35-0.39-0.7-0.58-1.06c-4.11-7.62-7.93-15.39-12.08-22.99c-0.08-0.14-0.16-0.29-0.24-0.45c-1.47-2.87-5.9-1.33-5.15,1.81
			c0.98,4.12,3.53,7.95,4.97,12.16c1.93,5.64-1.91,11.83-7.87,11.96c-0.25,0.01-0.51,0-0.76-0.02c-13.93-0.95-28.03-1.29-41.69-3.88
			c-17.37-3.3-33.81-8.82-49.07-16.99c-0.09-0.05-0.19-0.1-0.28-0.15c-0.86-0.47-1.71-0.95-2.56-1.43
			c-8.15-4.59-15.97-9.94-23.39-16.17c-1.94-1.62-3.81-3.28-5.67-4.96c-0.38-0.35-0.76-0.7-1.14-1.05c-1.05-0.97-2.08-1.95-3.1-2.94
			c-63.88-61.99-77.91-169.94-77.91-236.82v-47.46h-240.53v6.47v52.85c0,73.34,8.63,140.22,26.96,202.78
			c18.34,62.56,44.22,115.41,79.82,161.79c35.59,46.38,78.74,81.97,131.59,107.86c52.85,25.89,114.33,38.83,183.36,38.83
			c4.83,0,9.59-0.07,14.31-0.19c68.84-1.76,125.85-16.22,172.97-39.28c2.4-0.95,3.31-1.03,4.68-0.3c4.53,3.54,9.32,7.07,13.9,10.88
			c43.73,36.35,91.14,66.9,141.98,92.47c57.52,28.94,118.14,48.67,180.59,63.03c25.25,5.81,51.07,9.16,76.63,13.64
			c26.99,4.73,54.28,6.02,81.59,6.24c14.37,0.12,22.29-4.49,24.67-18.53c17.92-105.82-3.97-473.11-20.89-580.9
			c-0.01-0.09-0.03-0.19-0.04-0.28c-1.78-11.67,8.15-21.77,19.88-20.47c0.4,0.04,0.79,0.09,1.19,0.13
			c31.78,3.18,63.51,6.85,95.29,9.97c18.54,1.82,37.14,3.22,55.74,4.34c29.23,1.76,58.47,3.51,87.74,4.57
			c44.28,1.61,87.79-4.61,130.17-16.9c19.04-5.52,37.4-14.05,55.25-22.86c65.33-32.27,117.19-80.02,158.85-139.52
			c31.21-44.56,54.15-93.15,72.56-144.07c2.25-6.22,3.59-12.81,4.86-19.33C3370.63,1534.68,3402.37,1391.44,3241.74,1325.23z"/>
	</g>
</g>
<g id="gloss">
	<g>
		<path fill="#FFFFFF" d="M2561.9,311.7c-158.38,122.24-226.57,348.59-195.11,542.51C2389.35,671.42,2413.6,496.54,2561.9,311.7z"/>
		<path fill="#FFFFFF" d="M3075.58,850.66c83.44,33.01,96.99-114.14,8.46-92.46C3043.37,767.51,3037.62,834.66,3075.58,850.66z"/>
		<path fill="#FFFFFF" d="M2924.13,759.64c36.34-2.1,35.54-63.24-4.17-60.84C2877.15,697.39,2885.55,761.82,2924.13,759.64z"/>
		<path fill="#FFFFFF" d="M2373.24,944.57C2373.24,944.57,2373.24,944.58,2373.24,944.57c-1.19-0.71-2.65-1.11-4.48-1.09
			c-4.27,0.04-9.31,14.22-22.54,42.18c-15.23,32.2-32.53,61.86-51.18,90.16c-53.92,81.82-119.11,152.21-178.15,239.11
			c-36.21,53.3-70.1,112.83-97.65,185.02c-0.42,1.11-0.86,2.21-1.28,3.32c-22.31,59.19-39.4,130.71-48.46,203.53
			c-16.14,129.73-6.78,263.57,44.01,339.04c-25.56-123.73-32.69-232.11-19-332.12c2.04-14.92,4.54-29.66,7.52-44.23
			c11.5-56.29,29.27-109.81,52.63-161.38c18.21-40.19,39.82-79.19,64.54-117.4c54.96-84.95,185.68-198.14,223.68-263.12
			C2397.89,1033.57,2383.76,948.18,2373.24,944.57z"/>
	</g>
</g>
</svg>
